<svg width="153" height="114" viewBox="0 0 153 114" fill="none" xmlns="http://www.w3.org/2000/svg">
    <path d="M67.4885 34.1468C67.4885 34.1468 55.6693 25.46 43.8538 26.6418C32.0384 27.8236 20.1006 42.959 20.1006 42.959L23.9256 45.8394C23.9256 45.8394 43.7506 29.4994 54.4873 41.5796C65.2241 53.6598 67.4885 34.1468 67.4885 34.1468Z" fill="#FFBD30"/>
    <path opacity="0.2" d="M67.4885 34.1468C67.4885 34.1468 55.6693 25.46 43.8538 26.6418C32.0384 27.8236 20.1006 42.959 20.1006 42.959L23.9256 45.8394C23.9256 45.8394 43.7506 29.4994 54.4873 41.5796C65.2241 53.6598 67.4885 34.1468 67.4885 34.1468Z" fill="white"/>
    <path d="M58.5608 32.9346H17.9775V58.9836H58.5608V32.9346Z" fill="#FFD200"/>
    <path opacity="0.45" d="M124.243 88.559C123.496 88.409 122.791 88.0955 122.18 87.6413C121.57 87.1872 121.068 86.6037 120.713 85.9332V85.8952L102.602 51.6306L92.6336 58.6416L99.6831 80.6588C99.8689 81.2377 99.911 81.8527 99.8057 82.4512C99.7005 83.0497 99.451 83.6141 99.0786 84.0961C98.7062 84.578 98.2219 84.9633 97.6671 85.2191C97.1123 85.4748 96.5034 85.5933 95.8925 85.5646C90.5375 85.3214 84.8421 85.1846 78.9248 85.1846C48.3554 85.1846 23.5732 88.7224 23.5732 93.0886C23.5732 97.4548 48.3554 100.996 78.9248 100.996C109.494 100.996 134.257 97.4586 134.257 93.1C134.257 91.4052 130.551 89.8434 124.243 88.559Z" fill="#E6E6E6"/>
    <path d="M66.6465 90.5083C66.6465 90.5083 67.2126 92.4083 68.8918 92.6325C70.571 92.8567 70.9229 94.5325 69.3814 94.8745C67.8399 95.2165 64.0264 93.0695 64.0264 93.0695L64.2673 90.6565L66.6465 90.5083Z" fill="#FFBD30"/>
    <path d="M33.9547 90.1853C33.9547 90.1853 32.0116 90.6033 31.6597 92.2487C31.3078 93.8941 29.6019 94.1145 29.3647 92.5603C29.1276 91.0061 31.5871 87.3999 31.5871 87.3999L33.9892 87.8293L33.9547 90.1853Z" fill="#FFBD30"/>
    <path d="M34.2146 61.8147C34.2146 61.8147 32.4245 70.1139 38.8696 73.6707C45.3148 77.2275 65.6446 70.8245 62.5043 90.9835H67.0408C67.0408 90.9835 72.9045 74.2635 57.6925 68.3203L53.0757 63.1181L34.2146 61.8147Z" fill="#24285B"/>
    <path d="M96.8009 55.8243L95.2578 54.3594L85.607 64.3924L87.15 65.8574L96.8009 55.8243Z" fill="#FFD200"/>
    <path opacity="0.08" d="M96.8009 55.8243L95.2578 54.3594L85.607 64.3924L87.15 65.8574L96.8009 55.8243Z" fill="black"/>
    <path d="M96.0489 55.1058L94.5059 53.6409L84.855 63.6739L86.3981 65.1389L96.0489 55.1058Z" fill="#FFD200"/>
    <path d="M100.247 56.9519C102.728 54.3725 103.335 50.9486 101.603 49.3044C99.8713 47.6601 96.456 48.4182 93.9749 50.9976C91.4938 53.577 90.8864 57.0009 92.6183 58.6451C94.3502 60.2894 97.7656 59.5313 100.247 56.9519Z" fill="#FFD200"/>
    <path opacity="0.08" d="M100.247 56.9519C102.728 54.3725 103.335 50.9486 101.603 49.3044C99.8713 47.6601 96.456 48.4182 93.9749 50.9976C91.4938 53.577 90.8864 57.0009 92.6183 58.6451C94.3502 60.2894 97.7656 59.5313 100.247 56.9519Z" fill="black"/>
    <path d="M99.4928 56.2397C101.974 53.6604 102.581 50.2365 100.849 48.5922C99.1174 46.948 95.7021 47.7061 93.221 50.2854C90.7399 52.8648 90.1325 56.2887 91.8644 57.933C93.5963 59.5772 97.0117 58.8191 99.4928 56.2397Z" fill="#FFD200"/>
    <path opacity="0.57" d="M98.4285 55.2289C100.068 53.525 100.469 51.2634 99.3249 50.1773C98.181 49.0913 95.925 49.5922 94.286 51.2962C92.647 53.0001 92.2457 55.2617 93.3896 56.3477C94.5335 57.4337 96.7895 56.9328 98.4285 55.2289Z" fill="white"/>
    <path d="M83.4802 35.0855C83.4802 35.0855 81.7551 37.5745 80.0798 38.7981C79.9173 38.9157 79.7331 39.0003 79.5377 39.0471C79.3423 39.094 79.1395 39.1021 78.9409 39.071C78.7423 39.04 78.5519 38.9704 78.3804 38.8661C78.2089 38.7619 78.0598 38.6252 77.9416 38.4637C77.3334 37.6163 76.7596 36.2939 77.5208 34.8499L78.5077 32.2393C78.7635 31.7403 79.1685 31.3322 79.667 31.071C80.1656 30.8097 80.7333 30.7081 81.2923 30.7801C83.3846 30.9017 84.6047 33.6225 83.4802 35.0855Z" fill="#A17E74"/>
    <path d="M79.112 32.7749L71.3281 35.8909L72.2844 41.3933L77.8957 36.8447L79.112 32.7749Z" fill="#A17E74"/>
    <path d="M82.8185 34.7055C82.07 34.139 81.3898 33.4887 80.7912 32.7675C80.737 33.256 80.5407 33.7182 80.2261 34.0975C79.9116 34.4768 79.4925 34.7567 79.0203 34.9031C78.5651 35.052 78.072 35.039 77.6254 34.8664C77.1788 34.6937 76.8065 34.3722 76.5723 33.9569L79.0968 30.9929C79.4418 30.5542 79.8999 30.2166 80.4225 30.0159C80.9451 29.8152 81.5127 29.7589 82.065 29.8529C82.5421 29.9345 83.0135 30.0462 83.4764 30.1873C84.6239 30.5673 85.4233 32.1709 86.6855 32.2241C86.8125 32.2302 86.9356 32.269 87.043 32.3366C87.1503 32.4042 87.2381 32.4984 87.2979 32.6098C87.3576 32.7212 87.3872 32.8462 87.3838 32.9724C87.3804 33.0986 87.3441 33.2218 87.2784 33.3299C86.6588 34.3521 85.3047 35.6517 83.6485 35.1311C83.3501 35.0355 83.0697 34.8917 82.8185 34.7055Z" fill="#24285B"/>
    <path d="M79.3306 35.0398C79.3306 35.0398 80.0573 34.1278 79.3306 33.6376C78.6038 33.1474 77.5366 34.4622 78.359 35.34L79.3306 35.0398Z" fill="#A17E74"/>
    <path d="M82.3142 36.5977L82.2224 38.0303C82.2146 38.1104 82.187 38.1875 82.1419 38.2544C82.0968 38.3214 82.0356 38.3761 81.964 38.4138C81.8923 38.4515 81.8123 38.4709 81.7313 38.4702C81.6502 38.4696 81.5705 38.449 81.4995 38.4103L80.4629 37.8403L82.3142 36.5977Z" fill="#A17E74"/>
    <path opacity="0.31" d="M77.2653 37.3503C77.2653 37.3503 77.4986 35.6213 78.1259 34.9639C78.1259 34.9639 75.2916 35.9139 75.2266 39.0109L77.2653 37.3503Z" fill="#CE8172"/>
    <path opacity="0.08" d="M25.8799 58.3109C25.8799 58.3109 25.7575 40.3863 47.43 36.5977L34.6965 58.9835H25.899L25.8799 58.3109Z" fill="black"/>
    <path d="M73.3178 43.2972L72.6752 39.5846C72.4239 38.0705 71.7899 36.6446 70.8326 35.4403C69.8753 34.236 68.626 33.2928 67.2016 32.699C65.9619 32.2066 64.6656 31.8684 63.3422 31.692C61.6439 31.4564 59.2648 31.692 56.6026 32.3874C45.1352 35.378 36.7202 45.03 34.9798 56.6656L34.2148 61.8146L53.0759 63.118C53.0759 63.118 52.1197 57.798 58.8134 57.798C65.5072 57.798 73.9834 57.8664 73.3178 43.2972Z" fill="#FFBD30"/>
    <path opacity="0.08" d="M54.8354 37.5403C54.8354 37.5403 45.6822 39.1401 35.6224 53.5421L34.2148 61.8147L48.528 62.8711L54.8354 37.5403Z" fill="black"/>
    <path d="M65.3311 44.1635C67.1173 38.2431 60.1902 33.4551 55.2522 37.2171C51.1212 40.3597 46.4547 46.0179 46.2711 55.5673C45.9536 72.8003 62.5694 69.7185 85.0566 63.1179L84.3413 58.0981C84.3413 58.0981 57.4133 63.1559 61.07 54.4615C62.6 50.8249 64.3825 47.3137 65.3311 44.1635Z" fill="#FFBD30"/>
    <path opacity="0.2" d="M65.3311 44.1635C67.1173 38.2431 60.1902 33.4551 55.2522 37.2171C51.1212 40.3597 46.4547 46.0179 46.2711 55.5673C45.9536 72.8003 62.5694 69.7185 85.0566 63.1179L84.3413 58.0981C84.3413 58.0981 57.4133 63.1559 61.07 54.4615C62.6 50.8249 64.3825 47.3137 65.3311 44.1635Z" fill="white"/>
    <path d="M55.8798 68.3621C55.8798 68.3621 56.4345 87.4191 33.9894 90.9835L33.1211 86.9441C33.1211 86.9441 51.0986 82.5171 39.4859 70.6573L55.8798 68.3621Z" fill="#24285B"/>
    <path opacity="0.08" d="M91.2343 93.9892C92.5821 93.9892 93.6746 93.5877 93.6746 93.0924C93.6746 92.5971 92.5821 92.1956 91.2343 92.1956C89.8865 92.1956 88.7939 92.5971 88.7939 93.0924C88.7939 93.5877 89.8865 93.9892 91.2343 93.9892Z" fill="black"/>
    <path opacity="0.08" d="M100.567 91.6674C101.915 91.6674 103.008 91.2659 103.008 90.7706C103.008 90.2753 101.915 89.8738 100.567 89.8738C99.2195 89.8738 98.127 90.2753 98.127 90.7706C98.127 91.2659 99.2195 91.6674 100.567 91.6674Z" fill="black"/>
    <path opacity="0.08" d="M109.965 93.4611C111.313 93.4611 112.405 93.0596 112.405 92.5643C112.405 92.069 111.313 91.6675 109.965 91.6675C108.617 91.6675 107.524 92.069 107.524 92.5643C107.524 93.0596 108.617 93.4611 109.965 93.4611Z" fill="black"/>
    <path opacity="0.08" d="M124.354 94.3617C125.702 94.3617 126.795 93.9602 126.795 93.4649C126.795 92.9696 125.702 92.5681 124.354 92.5681C123.007 92.5681 121.914 92.9696 121.914 93.4649C121.914 93.9602 123.007 94.3617 124.354 94.3617Z" fill="black"/>
    <path opacity="0.08" d="M81.9812 91.4659C83.3586 91.4659 84.4751 91.0542 84.4751 90.5463C84.4751 90.0384 83.3586 89.6267 81.9812 89.6267C80.6039 89.6267 79.4873 90.0384 79.4873 90.5463C79.4873 91.0542 80.6039 91.4659 81.9812 91.4659Z" fill="black"/>
    <path d="M84.4785 59.0635C84.4785 59.0635 90.6674 58.4137 91.2105 60.8153C91.7537 63.2169 90.5679 64.4899 84.9987 62.7153L84.4785 59.0635Z" fill="#A17E74"/>
    <path d="M22.8242 58.9836C22.8242 58.9836 23.7154 62.5708 27.2842 61.8146C30.8529 61.0584 28.3054 56.658 22.8242 58.9836Z" fill="#A17E74"/>
</svg>
