<svg width="426" height="167" viewBox="0 0 426 167" fill="none" xmlns="http://www.w3.org/2000/svg">
<path fill-rule="evenodd" clip-rule="evenodd" d="M216.557 32.3226H145.972V152.881H175.71V121.448H216.557C223.565 121.448 229.548 115.018 229.548 107.871V45.8924C229.541 38.2201 223.558 32.3226 216.557 32.3226ZM199.804 94.3017C199.804 95.0184 199.118 95.9057 198.269 95.9057H175.71V58.22H198.269C199.124 58.22 199.804 59.1142 199.804 60.0082V94.3017ZM295.169 125.196C295.169 126.09 294.311 126.8 293.286 126.8H271.584C270.899 126.8 270.05 126.083 270.05 125.196V32.3226H240.311V139.127C240.311 146.984 246.464 152.881 253.472 152.881H311.921C319.101 152.881 324.913 146.991 324.913 139.127V32.3226H295.169V125.196ZM424.198 76.9776V45.8991C424.198 38.5751 418.043 32.3226 410.697 32.3226H352.764C345.415 32.3226 339.602 38.5751 339.602 45.8991V139.134C339.602 146.991 345.415 152.888 352.764 152.888H410.697C418.043 152.888 424.198 146.997 424.198 139.134V107.878H394.458V125.025C394.458 126.097 393.603 126.813 392.924 126.813H371.222C370.194 126.813 369.339 126.097 369.339 125.025V60.1857C369.339 59.1142 370.194 58.22 371.222 58.22H392.924C393.609 58.22 394.458 59.1142 394.458 60.1857V76.9776H424.198Z" fill="black"/>
<path fill-rule="evenodd" clip-rule="evenodd" d="M66.4262 154.916C64.1628 155.331 63.3441 155.331 61.0807 155.746C56.2648 156.569 50.1786 156.056 46.0551 155.054C29.8197 151.122 19.4292 141.356 14.4149 127.692C12.8375 123.396 10.9774 116.919 11.5252 109.588C13.2408 90.9953 27.8812 71.3777 37.2178 58.3929C42.1302 52.4911 51.5031 37.7961 51.8341 24.4604C55.2835 28.5085 60.9362 35.6715 65.5593 41.8731C75.4678 55.1569 84.2932 68.7116 92.2874 83.7459C94.4004 87.748 95.9474 90.7478 97.7774 95.2161C98.3554 96.7824 98.9333 98.3484 99.5112 99.9147C100.396 101.527 104.038 102.051 106.302 101.159C111.172 99.2411 109.673 94.79 108.324 91.6232C105.399 84.7595 102.202 78.1089 98.4998 71.8612C90.3671 58.1281 81.3434 44.1015 71.0494 31.0938C67.2329 26.3895 63.2476 22.065 59.6358 18.1036C56.0542 13.7907 51.9425 9.92115 48.3668 5.66588C46.5847 3.77743 45.0619 2.21679 43.0209 0C43.8035 8.02677 44.2793 19.877 40.7095 29.712C36.345 42.1839 32.3239 46.704 27.1287 54.1724C18.2134 66.9842 8.61173 80.2163 2.85657 95.7688C2.70613 96.2181 -4.51145 114.926 4.59035 134.602C11.7421 150.644 23.6132 160.784 42.5875 165.419C46.2296 166.312 53.634 167.25 58.191 166.939C61.9595 166.68 68.6596 165.701 70.6159 164.866C72.8675 163.853 72.5603 160.864 72.3497 159.062C71.8862 155.895 69.0329 154.45 66.4262 154.916ZM113.092 111.938C112.719 110.095 109.282 109.352 107.891 109.174C104.839 109.272 103.346 110.619 102.545 111.799C101.576 113.228 101.895 116.798 101.39 119.124C100.866 122.82 99.6977 125.619 98.6443 127.968C94.5208 137.579 88.5672 144.137 79.5735 149.665C77.2317 152.607 80.1392 159.246 85.9305 158.648C88.1457 157.127 90.6501 155.193 92.8653 153.673C100.655 147.442 107.331 137.895 110.925 126.724C111.557 124.772 113.712 115.467 113.092 111.938Z" fill="#0B378F"/>
<path fill-rule="evenodd" clip-rule="evenodd" d="M76.3106 106.352C76.3106 106.352 85.87 88.5771 72.2892 66.9843C72.2892 66.9843 76.5936 91.1106 56.6076 118.439L71.1998 117.748C71.1998 117.748 54.4285 135.201 55.7408 147.598C67.8707 127.801 87.8746 125.953 92.2933 106.462L76.3106 106.352Z" fill="#F57F00"/>
<path fill-rule="evenodd" clip-rule="evenodd" d="M44.6102 82.7787C44.6102 82.7787 38.4461 103.197 46.8737 118.335C69.8875 77.5559 69.7612 59.0725 56.1623 40.6292C51.3705 61.6405 39.5417 65.965 27.1228 91.6229C11.7659 123.345 36.0861 143.152 48.505 147.177C47.9453 141.592 50.2028 136.151 50.2028 136.151C50.2028 136.151 25.0518 118.997 44.6102 82.7787Z" fill="#1690ED"/>
</svg>
