<svg width="12" height="12" viewBox="0 0 12 12" fill="none" xmlns="http://www.w3.org/2000/svg">
    <path d="M5.16699 5.16669V1.00002C5.16699 0.539783 5.54009 0.166687 6.00033 0.166687C6.46056 0.166687 6.83366 0.539783 6.83366 1.00002V5.16669H11.0003C11.4606 5.16669 11.8337 5.53978 11.8337 6.00002C11.8337 6.46026 11.4606 6.83335 11.0003 6.83335H6.83366V11C6.83366 11.4603 6.46056 11.8334 6.00033 11.8334C5.54009 11.8334 5.16699 11.4603 5.16699 11V6.83335H1.00033C0.540088 6.83335 0.166992 6.46026 0.166992 6.00002C0.166992 5.53978 0.540088 5.16669 1.00033 5.16669H5.16699Z" fill="black"/>
</svg>
