<svg width="7" height="10" viewBox="0 0 7 10" fill="none" xmlns="http://www.w3.org/2000/svg">
<path d="M0.849104 5.05112C0.849085 4.91388 0.875847 4.77798 0.927862 4.65118C0.979877 4.52439 1.05612 4.40916 1.15225 4.3121L5.01594 0.412109C5.20998 0.216247 5.47314 0.106201 5.74755 0.106201C6.02196 0.106201 6.28513 0.216247 6.47917 0.412109C6.67321 0.607972 6.78223 0.873613 6.78223 1.1506C6.78223 1.4276 6.67321 1.69324 6.47917 1.8891L4.10154 5.0531L6.47917 8.2171C6.57525 8.31408 6.65147 8.42923 6.70347 8.55594C6.75547 8.68265 6.78223 8.81844 6.78223 8.9556C6.78223 9.09275 6.75547 9.22857 6.70347 9.35529C6.65147 9.482 6.57525 9.59714 6.47917 9.69412C6.38309 9.7911 6.26902 9.86802 6.14349 9.9205C6.01796 9.97299 5.88343 10 5.74755 10C5.61168 10 5.47712 9.97299 5.35159 9.9205C5.22606 9.86802 5.11202 9.7911 5.01594 9.69412L1.15225 5.7941C1.05561 5.6966 0.979078 5.58075 0.927045 5.45322C0.875013 5.32569 0.848508 5.18904 0.849104 5.05112Z" fill="#0F0B03"/>
</svg>
