<svg xmlns="http://www.w3.org/2000/svg" width="174" preserveAspectRatio="none" height="107" viewBox="0 0 174 107" fill="none">
    <path fill-rule="evenodd" clip-rule="evenodd" d="M86.1943 25.2606H62.5004V70.019H72.4827V58.3491H86.1943C88.5468 58.3491 90.5551 55.962 90.5551 53.3087V30.2985C90.5529 27.4501 88.5446 25.2606 86.1943 25.2606ZM80.5706 48.2708C80.5706 48.5369 80.3404 48.8663 80.0554 48.8663H72.4827V34.8752H80.0554C80.3426 34.8752 80.5706 35.2072 80.5706 35.5391V48.2708V48.2708ZM112.583 59.7404C112.583 60.0724 112.295 60.3359 111.951 60.3359H104.666C104.436 60.3359 104.151 60.0698 104.151 59.7404V25.2606H94.1683V64.9126C94.1683 67.8294 96.2335 70.019 98.5861 70.019H118.206C120.616 70.019 122.567 67.832 122.567 64.9126V25.2606H112.583V59.7404ZM155.895 41.8391V30.301C155.895 27.5819 153.829 25.2606 151.363 25.2606H131.916C129.449 25.2606 127.498 27.5819 127.498 30.301V64.9152C127.498 67.832 129.449 70.0215 131.916 70.0215H151.363C153.829 70.0215 155.895 67.8345 155.895 64.9152V53.3112H145.912V59.677C145.912 60.0749 145.625 60.341 145.397 60.341H138.112C137.767 60.341 137.48 60.0749 137.48 59.677V35.605C137.48 35.2072 137.767 34.8752 138.112 34.8752H145.397C145.627 34.8752 145.912 35.2072 145.912 35.605V41.8391H155.895Z" fill="black"/>
    <path fill-rule="evenodd" clip-rule="evenodd" d="M66.3525 74.0128C66.1749 73.8405 65.9579 73.7061 65.7058 73.6124C65.4536 73.5186 65.1686 73.4705 64.8529 73.4705H62.8008V78.9519H63.8992V77.4415H64.8551C65.1708 77.4415 65.4558 77.3959 65.708 77.3046C65.9601 77.2134 66.1771 77.0816 66.3547 76.9093C66.5323 76.737 66.6704 76.5292 66.7691 76.2859C66.8656 76.0426 66.9138 75.7689 66.9138 75.4598C66.9138 75.1582 66.8656 74.882 66.7691 74.6387C66.6682 74.3929 66.5301 74.1851 66.3525 74.0128ZM65.5413 76.1617C65.3703 76.3265 65.1182 76.4076 64.7893 76.4076H63.8948V74.5044H64.7893C65.1182 74.5044 65.3703 74.5855 65.5413 74.7477C65.7123 74.9099 65.7978 75.1481 65.7978 75.4598C65.8 75.7639 65.7145 75.997 65.5413 76.1617ZM71.3776 76.514C71.5465 76.22 71.632 75.8678 71.632 75.4598C71.632 75.1582 71.5837 74.882 71.4873 74.6387C71.3908 74.3929 71.2527 74.1851 71.0729 74.0128C70.8953 73.8405 70.6783 73.7061 70.4261 73.6124C70.174 73.5186 69.889 73.4705 69.5732 73.4705H67.5211V78.9519H68.6195V77.4238H69.6281L70.5423 78.9519H71.7219L70.6585 77.1906C70.9698 77.036 71.2088 76.8105 71.3776 76.514ZM70.2639 76.1668C70.0929 76.3341 69.8407 76.4177 69.5119 76.4177H68.6173V74.5069H69.5119C69.8407 74.5069 70.0929 74.588 70.2639 74.7502C70.4349 74.9124 70.5204 75.1506 70.5204 75.4623C70.5226 75.7639 70.4349 75.9996 70.2639 76.1668ZM72.3314 78.9544H73.4298V73.473H72.3314V78.9544ZM77.8257 73.473L76.3764 77.3503H76.3501L74.9207 73.473H73.7345L75.7801 78.9544H76.8632L78.9153 73.473H77.8257ZM80.4741 73.473L78.3606 78.9544H79.4854L79.9063 77.7785H82.1075L82.5285 78.9544H83.6795L81.5594 73.473H80.4741ZM80.2571 76.8156L80.996 74.7553H81.0223L81.7611 76.8156H80.2571ZM83.2323 74.5069H84.7494V78.9544H85.8479V74.5069H87.365V73.473H83.2323V74.5069ZM88.8756 76.6686H91.0769V75.6828H88.8756V74.4917H91.3685V73.473H87.7838V78.9544H91.4562V77.9357H88.8756V76.6686ZM97.0798 76.4963C97.0798 77.0031 96.9899 77.3756 96.808 77.6113C96.6282 77.8495 96.3651 77.9686 96.0231 77.9686C95.3193 77.9686 94.9663 77.477 94.9663 76.4963V73.473H93.8679V76.5419C93.8679 77.3503 94.0542 77.9711 94.4291 78.4019C94.8041 78.8328 95.3324 79.0482 96.0143 79.0482C96.6961 79.0482 97.2245 78.8328 97.5994 78.4019C97.9743 77.9711 98.1607 77.3503 98.1607 76.5419V73.473H97.0776V76.4963H97.0798ZM98.4633 74.5069H99.9804V78.9544H101.079V74.5069H102.596V73.473H98.4633V74.5069ZM103.015 78.9544H104.113V73.473H103.015V78.9544ZM106.165 73.473H105.067V78.9544H108.542V77.9205H106.163V73.473H106.165ZM108.991 78.9544H110.09V73.473H108.991V78.9544ZM116.748 75.9083L115.481 73.473H110.509V74.5069H112.026V78.9544H113.124V74.5069H114.641V74.0964L116.152 76.9955V78.9544H117.25V77.0132L119.094 73.473H118.018L116.748 75.9083ZM122.372 74.9529C122.508 74.7958 122.668 74.6742 122.852 74.588C123.036 74.5019 123.24 74.4588 123.462 74.4588C123.94 74.4588 124.339 74.6717 124.654 75.0999L125.358 74.3473C125.128 74.033 124.847 73.7948 124.518 73.6276C124.19 73.4603 123.819 73.3767 123.407 73.3767C123.045 73.3716 122.707 73.4401 122.39 73.5845C122.074 73.7289 121.8 73.9266 121.567 74.18C121.335 74.4334 121.153 74.7325 121.021 75.0797C120.89 75.4268 120.826 75.8044 120.831 76.2124C120.826 76.6204 120.89 76.998 121.021 77.3452C121.153 77.6924 121.335 77.9939 121.567 78.2499C121.8 78.5058 122.074 78.7035 122.387 78.8454C122.701 78.9873 123.039 79.0532 123.4 79.0482C123.81 79.0482 124.183 78.9645 124.514 78.7973C124.845 78.63 125.128 78.3867 125.358 78.07L124.654 77.3173C124.334 77.7507 123.935 77.9661 123.462 77.9661C123.24 77.9661 123.036 77.923 122.852 77.8368C122.668 77.7507 122.506 77.629 122.372 77.4719C122.238 77.3148 122.131 77.1298 122.056 76.9169C121.982 76.7041 121.944 76.4684 121.944 76.2124C121.944 75.9565 121.982 75.7208 122.056 75.5079C122.131 75.2951 122.236 75.1101 122.372 74.9529ZM129.978 74.1851C129.745 73.9291 129.469 73.7289 129.151 73.587C128.833 73.4426 128.491 73.3742 128.125 73.3792C127.759 73.3742 127.417 73.4426 127.095 73.587C126.774 73.7315 126.498 73.9291 126.264 74.1851C126.031 74.441 125.847 74.7426 125.716 75.0898C125.582 75.437 125.52 75.812 125.529 76.2124C125.52 76.6154 125.582 76.9879 125.716 77.3351C125.849 77.6822 126.031 77.9838 126.264 78.2398C126.496 78.4957 126.772 78.6959 127.095 78.8378C127.415 78.9823 127.759 79.0507 128.125 79.0456C128.491 79.0507 128.833 78.9823 129.151 78.8378C129.469 78.6934 129.745 78.4957 129.978 78.2398C130.21 77.9838 130.394 77.6822 130.526 77.3351C130.66 76.9879 130.723 76.6128 130.719 76.2124C130.723 75.8095 130.66 75.437 130.526 75.0898C130.392 74.7426 130.21 74.441 129.978 74.1851ZM129.495 76.9169C129.421 77.1298 129.318 77.3173 129.184 77.4719C129.05 77.629 128.895 77.7507 128.713 77.8368C128.533 77.923 128.336 77.9661 128.123 77.9661C127.91 77.9661 127.715 77.923 127.533 77.8368C127.353 77.7507 127.195 77.629 127.062 77.4719C126.928 77.3148 126.825 77.1298 126.75 76.9169C126.676 76.7041 126.639 76.4684 126.639 76.2124C126.639 75.9565 126.676 75.7208 126.75 75.5079C126.825 75.2951 126.928 75.1075 127.062 74.9529C127.195 74.7958 127.351 74.6742 127.533 74.588C127.713 74.5019 127.91 74.4588 128.123 74.4588C128.336 74.4588 128.531 74.5019 128.713 74.588C128.892 74.6742 129.05 74.7958 129.184 74.9529C129.318 75.1101 129.421 75.2951 129.495 75.5079C129.57 75.7208 129.607 75.9565 129.607 76.2124C129.607 76.4684 129.57 76.7041 129.495 76.9169ZM135.807 73.473L134.073 76.8561H134.047L132.286 73.473H131.379V78.9544H132.409V75.7918H132.435L133.797 78.3766H134.292L135.661 75.7284H135.687L135.693 78.9544H136.724L136.711 73.473H135.807ZM141.791 75.4623C141.791 75.1608 141.742 74.8845 141.646 74.6412C141.549 74.3954 141.411 74.1876 141.232 74.0153C141.054 73.843 140.837 73.7087 140.585 73.6149C140.333 73.5211 140.048 73.473 139.732 73.473H137.68V78.9544H138.778V77.444H139.734C140.05 77.444 140.335 77.3984 140.587 77.3072C140.839 77.216 141.056 77.0842 141.234 76.9119C141.411 76.7395 141.549 76.5317 141.648 76.2885C141.74 76.0452 141.791 75.7689 141.791 75.4623ZM140.42 76.1617C140.249 76.3265 139.997 76.4076 139.668 76.4076H138.774V74.5044H139.668C139.997 74.5044 140.249 74.5855 140.42 74.7477C140.591 74.9099 140.677 75.1481 140.677 75.4598C140.679 75.7639 140.594 75.997 140.42 76.1617ZM143.652 73.473L141.538 78.9544H142.663L143.084 77.7785H145.285L145.706 78.9544H146.857L144.737 73.473H143.652ZM143.435 76.8156L144.174 74.7553H144.2L144.939 76.8156H143.435ZM150.449 76.7623H150.422L148.092 73.473H147.184V78.9544H148.267V75.665H148.293L150.631 78.9544H151.532V73.473H150.449V76.7623ZM155.529 73.473L154.261 75.9083L152.994 73.473H151.828L153.663 76.998V78.9569H154.761V77.0158L156.605 73.4755H155.529V73.473Z" fill="black"/>
    <path fill-rule="evenodd" clip-rule="evenodd" d="M38.298 78.5138C37.5382 78.6677 37.2634 78.6677 36.5036 78.8217C34.887 79.1274 32.844 78.9371 31.4598 78.5651C26.0099 77.105 22.522 73.4794 20.8388 68.4066C20.3093 66.8118 19.6849 64.4069 19.8688 61.6855C20.4447 54.7827 25.3592 47.4995 28.4933 42.6788C30.1423 40.4877 33.2886 35.0321 33.3997 30.0811C34.5576 31.584 36.4551 34.2433 38.007 36.5457C41.3331 41.4774 44.2956 46.5097 46.9791 52.0913C47.6884 53.5771 48.2077 54.6908 48.822 56.3497C49.016 56.9312 49.21 57.5126 49.404 58.0941C49.701 58.6927 50.9236 58.8872 51.6834 58.5559C53.3182 57.844 52.815 56.1915 52.3624 55.0158C51.3803 52.4676 50.3073 49.9985 49.0645 47.679C46.3345 42.5805 43.3054 37.373 39.8499 32.5438C38.5688 30.7973 37.231 29.1918 36.0186 27.7211C34.8163 26.1199 33.4361 24.6833 32.2358 23.1035C31.6376 22.4024 31.1264 21.823 30.4413 21C30.704 23.98 30.8637 28.3795 29.6654 32.0308C28.2003 36.6611 26.8505 38.3392 25.1066 41.1119C22.1139 45.8684 18.8908 50.7809 16.9589 56.5549C16.9084 56.7217 14.4856 63.6672 17.5409 70.9719C19.9416 76.9276 23.9265 80.6922 30.2958 82.4131C31.5184 82.7444 34.0039 83.0929 35.5336 82.9774C36.7986 82.8812 39.0477 82.5178 39.7044 82.2078C40.4602 81.8316 40.3571 80.7221 40.2864 80.053C40.1308 78.8772 39.173 78.3407 38.298 78.5138ZM53.9628 62.5577C53.8375 61.8736 52.6837 61.5979 52.2169 61.5316C51.1924 61.5679 50.6912 62.0682 50.4225 62.5064C50.0971 63.0366 50.2042 64.362 50.0345 65.2256C49.8587 66.598 49.4666 67.637 49.113 68.5092C47.7288 72.0771 45.7303 74.512 42.7113 76.5642C41.9252 77.6566 42.9012 80.1214 44.8452 79.8991C45.5888 79.3347 46.4295 78.6164 47.1731 78.0521C49.7879 75.739 52.0289 72.1947 53.2353 68.0474C53.4475 67.3227 54.1709 63.8681 53.9628 62.5577Z" fill="#0B378F"/>
    <path fill-rule="evenodd" clip-rule="evenodd" d="M41.616 60.4841C41.616 60.4841 44.8249 53.8849 40.2661 45.8684C40.2661 45.8684 41.711 54.8255 35.0021 64.9712L39.9004 64.7147C39.9004 64.7147 34.2706 71.1942 34.7111 75.7968C38.7829 68.4472 45.4978 67.761 46.9811 60.5247L41.616 60.4841Z" fill="#F57F00"/>
    <path fill-rule="evenodd" clip-rule="evenodd" d="M30.9748 51.7322C30.9748 51.7322 28.9056 59.3126 31.7346 64.9327C39.4599 49.7932 39.4175 42.9311 34.8526 36.0839C33.2441 43.8845 29.2734 45.49 25.1046 55.0157C19.9496 66.7926 28.1134 74.1464 32.2822 75.6407C32.0943 73.5671 32.8521 71.5469 32.8521 71.5469C32.8521 71.5469 24.4094 65.1786 30.9748 51.7322Z" fill="#1690ED"/>
</svg>
