<svg width="20" height="20" viewBox="0 0 20 20" fill="none" xmlns="http://www.w3.org/2000/svg">
    <path d="M4.16667 15.809H5.345L13.1067 8.04732L11.9283 6.86899L4.16667 14.6307V15.809ZM5.83333 17.4757H3.5C2.94771 17.4757 2.5 17.0279 2.5 16.4757V13.9398L13.6958 2.74399C13.8521 2.58776 14.064 2.5 14.285 2.5C14.506 2.5 14.7179 2.58776 14.8742 2.74399L17.2317 5.10149C17.3879 5.25776 17.4757 5.46969 17.4757 5.69066C17.4757 5.91163 17.3879 6.12355 17.2317 6.27982L7.7025 15.809L5.83333 17.4757ZM13.1067 5.69066L14.285 6.86899L15.4633 5.69066L14.285 4.51232L13.1067 5.69066Z" fill="#B8BABF"/>
    <rect x="10" y="15.8334" width="6.66667" height="1.66667" rx="0.833333" fill="#C4C4C4"/>
</svg>
