<svg width="24" height="24" viewBox="0 0 24 24" fill="none" xmlns="http://www.w3.org/2000/svg">
    <g>
        <path d="M12 1.99994C17.523 1.99994 22 6.47694 22 11.9999C22 17.5229 17.523 21.9999 12 21.9999C6.477 21.9999 2 17.5229 2 11.9999H4C4 16.4179 7.582 19.9999 12 19.9999C16.418 19.9999 20 16.4179 20 11.9999C20 7.58194 16.418 3.99994 12 3.99994C9.25 3.99994 6.824 5.38694 5.385 7.49994H8V9.49994H2V3.49994H4V5.99994C5.824 3.56994 8.729 1.99994 12 1.99994ZM13 6.99994V11.5849L16.243 14.8279L14.828 16.2429L11 12.4129V6.99994H13Z" fill="#0F0B03"/>
        <path d="M13 6.99994V11.5899L16.24 14.8299L14.83 16.2399L11 12.4099V6.99994H13Z" fill="#F57F00"/>
    </g>
    <defs>
        <clipPath>
            <rect width="24" height="24" fill="white"/>
        </clipPath>
    </defs>
</svg>
