<svg width="24" height="24" viewBox="0 0 24 24" fill="none" xmlns="http://www.w3.org/2000/svg">
<g clip-path="url(#clip0_1222_2413)">
<path d="M12 20.9L16.95 15.95C17.9289 14.971 18.5955 13.7238 18.8656 12.3659C19.1356 11.0081 18.9969 9.60064 18.4671 8.3216C17.9373 7.04256 17.04 5.94935 15.8889 5.18021C14.7378 4.41107 13.3844 4.00055 12 4.00055C10.6156 4.00055 9.26222 4.41107 8.11109 5.18021C6.95996 5.94935 6.06275 7.04256 5.53292 8.3216C5.00308 9.60064 4.86442 11.0081 5.13445 12.3659C5.40449 13.7238 6.07111 14.971 7.05 15.95L12 20.9ZM12 23.728L5.636 17.364C4.37734 16.1054 3.52019 14.5017 3.17293 12.7559C2.82567 11.0101 3.00391 9.20047 3.6851 7.55595C4.36629 5.91142 5.51984 4.50582 6.99988 3.51689C8.47992 2.52796 10.22 2.00012 12 2.00012C13.78 2.00012 15.5201 2.52796 17.0001 3.51689C18.4802 4.50582 19.6337 5.91142 20.3149 7.55595C20.9961 9.20047 21.1743 11.0101 20.8271 12.7559C20.4798 14.5017 19.6227 16.1054 18.364 17.364L12 23.728Z" fill="black"/>
<circle cx="12" cy="11" r="3" stroke="#f57f00" stroke-width="2"/>
</g>
<defs>
<clipPath id="clip0_1222_2413">
<rect width="24" height="24" fill="white"/>
</clipPath>
</defs>
</svg>
