<svg width="24" height="24" viewBox="0 0 24 24" fill="none" xmlns="http://www.w3.org/2000/svg">
    <path d="M12 3C11.7033 3 11.4133 3.08797 11.1666 3.2528C10.92 3.41762 10.7277 3.65189 10.6142 3.92597C10.5006 4.20006 10.4709 4.50166 10.5288 4.79264C10.5867 5.08361 10.7296 5.35088 10.9393 5.56066C11.1491 5.77044 11.4164 5.9133 11.7074 5.97118C11.9983 6.02906 12.2999 5.99935 12.574 5.88582C12.8481 5.77229 13.0824 5.58003 13.2472 5.33336C13.412 5.08668 13.5 4.79667 13.5 4.5C13.5 4.10218 13.342 3.72064 13.0607 3.43934C12.7794 3.15804 12.3978 3 12 3ZM12 18C11.7033 18 11.4133 18.088 11.1666 18.2528C10.92 18.4176 10.7277 18.6519 10.6142 18.926C10.5006 19.2001 10.4709 19.5017 10.5288 19.7926C10.5867 20.0836 10.7296 20.3509 10.9393 20.5607C11.1491 20.7704 11.4164 20.9133 11.7074 20.9712C11.9983 21.0291 12.2999 20.9993 12.574 20.8858C12.8481 20.7723 13.0824 20.58 13.2472 20.3334C13.412 20.0867 13.5 19.7967 13.5 19.5C13.5 19.1022 13.342 18.7206 13.0607 18.4393C12.7794 18.158 12.3978 18 12 18ZM12 10.5C11.7033 10.5 11.4133 10.588 11.1666 10.7528C10.92 10.9176 10.7277 11.1519 10.6142 11.426C10.5006 11.7001 10.4709 12.0017 10.5288 12.2926C10.5867 12.5836 10.7296 12.8509 10.9393 13.0607C11.1491 13.2704 11.4164 13.4133 11.7074 13.4712C11.9983 13.5291 12.2999 13.4994 12.574 13.3858C12.8481 13.2723 13.0824 13.08 13.2472 12.8334C13.412 12.5867 13.5 12.2967 13.5 12C13.5 11.6022 13.342 11.2206 13.0607 10.9393C12.7794 10.658 12.3978 10.5 12 10.5Z" fill="#B8BABF"/>
</svg>
