<svg width="8" height="10" viewBox="0 0 8 10" fill="none" xmlns="http://www.w3.org/2000/svg">
<path d="M7.84775 5.05136C7.84777 4.91412 7.81289 4.77823 7.7451 4.65143C7.67731 4.52463 7.57794 4.4094 7.45266 4.31235L2.4172 0.412354C2.16431 0.216491 1.82133 0.106445 1.4637 0.106445C1.10607 0.106445 0.763088 0.216491 0.510203 0.412354C0.257318 0.608216 0.115234 0.873857 0.115234 1.15085C0.115234 1.42784 0.257318 1.69348 0.510203 1.88934L3.60892 5.05334L0.510203 8.21735C0.384987 8.31433 0.285644 8.42947 0.217877 8.55618C0.150111 8.68289 0.115234 8.81869 0.115234 8.95584C0.115234 9.09299 0.150111 9.22882 0.217877 9.35553C0.285644 9.48224 0.384988 9.59739 0.510203 9.69437C0.635419 9.79135 0.784085 9.86826 0.947688 9.92075C1.11129 9.97323 1.28662 10.0002 1.4637 10.0002C1.64078 10.0002 1.81615 9.97323 1.97975 9.92075C2.14336 9.86826 2.29198 9.79135 2.4172 9.69437L7.45266 5.79434C7.57862 5.69685 7.67835 5.58099 7.74617 5.45346C7.81398 5.32593 7.84852 5.18928 7.84775 5.05136Z" fill="#BCBFC3"/>
</svg>
