<svg width="24" height="24" viewBox="0 0 24 24" fill="none" xmlns="http://www.w3.org/2000/svg">
    <path d="M18.0306 16.617L22.3136 20.9L20.8996 22.314L16.6176 18.031C14.8204 19.4668 12.5417 20.1599 10.2494 19.9681C7.95718 19.7763 5.82538 18.714 4.29185 16.9995C2.75832 15.285 1.93948 13.0484 2.00349 10.749C2.0675 8.44963 3.00951 6.26203 4.63604 4.63549C6.26258 3.00896 8.45018 2.06695 10.7496 2.00294C13.0489 1.93893 15.2856 2.75777 17.0001 4.2913C18.7146 5.82483 19.7768 7.95663 19.9687 10.2489C20.1605 12.5411 19.4673 14.8199 18.0316 16.617H18.0306ZM16.0246 15.875C17.3109 14.5491 18.0209 12.7685 17.9999 10.9213C17.9789 9.07408 17.2286 7.31006 15.9125 6.01374C14.5964 4.71741 12.8212 3.99389 10.9739 4.00089C9.12656 4.00789 7.3569 4.74484 6.05064 6.05109C4.74439 7.35735 4.00744 9.12701 4.00044 10.9743C3.99344 12.8216 4.71696 14.5968 6.01329 15.9129C7.30961 17.2291 9.07363 17.9794 10.9208 18.0004C12.7681 18.0214 14.5487 17.3113 15.8746 16.025L16.0246 15.875Z" fill="#000000"/>
</svg>
