<svg width="24" height="24" viewBox="0 0 24 24" fill="none" xmlns="http://www.w3.org/2000/svg">
<g clip-path="url(#clip0_1222_2426)">
<path d="M12 1L20.217 2.826C20.4391 2.87536 20.6377 2.99897 20.78 3.1764C20.9224 3.35384 21 3.57452 21 3.802V13.789C20.9999 14.7767 20.756 15.7492 20.2899 16.62C19.8238 17.4908 19.1499 18.2331 18.328 18.781L12 23L5.672 18.781C4.85027 18.2332 4.17646 17.4911 3.71035 16.6205C3.24424 15.7498 3.00024 14.7776 3 13.79V3.802C3.00004 3.57452 3.07764 3.35384 3.21999 3.1764C3.36234 2.99897 3.56094 2.87536 3.783 2.826L12 1ZM12 3.049L5 4.604V13.789C5.00001 14.4475 5.16257 15.0957 5.47326 15.6763C5.78395 16.2568 6.23315 16.7517 6.781 17.117L12 20.597L17.219 17.117C17.7667 16.7518 18.2158 16.2571 18.5265 15.6767C18.8372 15.0964 18.9998 14.4483 19 13.79V4.604L12 3.049Z" fill="black"/>
<path d="M13.2178 7.41286C12.8683 7.14492 12.4403 6.9998 11.9999 7C11.5597 7.00002 11.1317 7.1453 10.7824 7.41332C10.4332 7.68133 10.1821 8.0571 10.0682 8.48236C9.9542 8.90761 9.98375 9.35857 10.1522 9.76532C10.3207 10.1721 10.6187 10.5119 10.9999 10.732V15H12.9999L13.0009 10.732C13.3822 10.5118 13.6803 10.1719 13.8487 9.76509C14.0171 9.35824 14.0466 8.90718 13.9325 8.48187C13.8185 8.05657 13.5672 7.6808 13.2178 7.41286Z" fill="#FFBD30"/>
</g>
<defs>
<clipPath id="clip0_1222_2426">
<rect width="24" height="24" fill="white"/>
</clipPath>
</defs>
</svg>
