<svg width="24" height="24" viewBox="0 0 24 24" fill="none" xmlns="http://www.w3.org/2000/svg">
    <path d="M14.604 4.20393L15.3895 5.91733H17.9233C18.7023 5.91733 19.3339 6.5489 19.3339 7.32798V8.37265C19.3339 8.90531 18.9021 9.33712 18.3695 9.33712H5.15051C4.61784 9.33712 4.18604 8.90531 4.18604 8.37265V7.32798C4.18604 6.5489 4.8176 5.91733 5.59669 5.91733H8.13053L8.916 4.20393C9.15172 3.68975 9.66547 3.36011 10.2311 3.36011H13.2889C13.8545 3.36011 14.3682 3.68975 14.604 4.20393Z" stroke="#596375" stroke-width="1.44" stroke-linecap="round" stroke-linejoin="round"/>
    <path d="M17.8563 9.40869V17.747C17.8563 19.345 16.5769 20.6404 14.9988 20.6404H8.52181C6.94366 20.6404 5.66431 19.345 5.66431 17.747V9.40869" stroke="#596375" stroke-width="1.44" stroke-linecap="round" stroke-linejoin="round"/>
    <path d="M10.1372 12.7837V17.1118M13.3824 12.7837V17.1118" stroke="#596375" stroke-width="1.44" stroke-linecap="round" stroke-linejoin="round"/>
</svg>
